<svg width="19" height="14" viewBox="0 0 19 14" fill="none" xmlns="http://www.w3.org/2000/svg">
<path d="M16.5625 0H1.5625C1.1481 0 0.750671 0.16462 0.457646 0.457646C0.16462 0.750671 3.25714e-08 1.1481 3.25714e-08 1.5625V3.4375C-7.34846e-05 3.7977 0.124307 4.14687 0.352092 4.42591C0.579876 4.70494 0.897074 4.89671 1.25 4.96875V11.5625C1.25 11.9769 1.41462 12.3743 1.70765 12.6674C2.00067 12.9604 2.3981 13.125 2.8125 13.125H15.3125C15.7269 13.125 16.1243 12.9604 16.4174 12.6674C16.7104 12.3743 16.875 11.9769 16.875 11.5625V4.96875C17.2279 4.89671 17.5451 4.70494 17.7729 4.42591C18.0007 4.14687 18.1251 3.7977 18.125 3.4375V1.5625C18.125 1.1481 17.9604 0.750671 17.6674 0.457646C17.3743 0.16462 16.9769 0 16.5625 0ZM1.875 1.875H16.25V3.125H1.875V1.875ZM3.125 11.25V5H15V11.25H3.125ZM11.875 7.1875C11.875 7.43614 11.7762 7.6746 11.6004 7.85041C11.4246 8.02623 11.1861 8.125 10.9375 8.125H7.1875C6.93886 8.125 6.7004 8.02623 6.52459 7.85041C6.34877 7.6746 6.25 7.43614 6.25 7.1875C6.25 6.93886 6.34877 6.7004 6.52459 6.52459C6.7004 6.34877 6.93886 6.25 7.1875 6.25H10.9375C11.1861 6.25 11.4246 6.34877 11.6004 6.52459C11.7762 6.7004 11.875 6.93886 11.875 7.1875Z" fill="#1F2937"/>
</svg>
