<svg width="26" height="26" viewBox="0 0 26 26" fill="none" xmlns="http://www.w3.org/2000/svg">
<path d="M15.0513 2.11205C15.1541 1.72787 15.4053 1.40025 15.7497 1.20124C16.094 1.00223 16.5033 0.948122 16.8875 1.0508C18.8268 1.55601 20.5961 2.56938 22.0132 3.9864C23.4302 5.40343 24.4436 7.1728 24.9488 9.11205C25.0043 9.30377 25.0211 9.50464 24.998 9.7029C24.9749 9.90116 24.9125 10.0928 24.8145 10.2667C24.7164 10.4405 24.5846 10.593 24.4268 10.7153C24.269 10.8375 24.0884 10.9271 23.8956 10.9787C23.7028 11.0302 23.5016 11.0428 23.3039 11.0156C23.1061 10.9885 22.9158 10.9221 22.744 10.8204C22.5723 10.7188 22.4225 10.5839 22.3036 10.4236C22.1846 10.2633 22.0988 10.0809 22.0513 9.88705C21.6787 8.45857 20.9321 7.15524 19.8882 6.11137C18.8443 5.06749 17.541 4.32083 16.1125 3.9483C15.7283 3.84546 15.4007 3.59425 15.2017 3.2499C15.0027 2.90556 14.9486 2.49628 15.0513 2.11205ZM25.9813 19.4471C25.7429 21.2616 24.8522 22.9273 23.4754 24.1331C22.0987 25.3389 20.3301 26.0024 18.5 25.9996C8.29876 25.9996 9.05509e-06 17.7008 9.05509e-06 7.49955C-0.002827 5.66943 0.660617 3.90085 1.86643 2.52412C3.07225 1.1474 4.73797 0.256671 6.55251 0.0183039C7.08715 -0.0466632 7.62851 0.062326 8.09636 0.329123C8.56421 0.595921 8.93367 1.00633 9.15001 1.49955L11.7888 7.3908C11.7916 7.39853 11.7949 7.40604 11.7988 7.4133C11.9609 7.79233 12.0268 8.20557 11.9906 8.61624C11.9544 9.02691 11.8172 9.42225 11.5913 9.76705C11.5591 9.81729 11.5236 9.86532 11.485 9.9108L9.10251 12.7496C9.98501 14.3546 11.665 16.0196 13.2888 16.9008L16.0775 14.5258C16.1223 14.4883 16.169 14.4533 16.2175 14.4208C16.5635 14.1886 16.9623 14.047 17.3773 14.009C17.7922 13.971 18.2101 14.0378 18.5925 14.2033L18.615 14.2133L24.5 16.8496C24.9931 17.0661 25.4034 17.4355 25.6702 17.9034C25.9369 18.3712 26.046 18.9124 25.9813 19.4471ZM22.9425 19.4396L17.6925 17.0883L14.8888 19.4721C14.8447 19.5102 14.7983 19.5457 14.75 19.5783C14.3896 19.8173 13.9734 19.9587 13.542 19.9887C13.1106 20.0187 12.6788 19.9363 12.2888 19.7496C9.85376 18.5746 7.42751 16.1646 6.25001 13.7496C6.06276 13.3613 5.97909 12.9312 6.00712 12.501C6.03516 12.0708 6.17394 11.6552 6.41001 11.2946C6.4426 11.2443 6.47851 11.1963 6.51751 11.1508L8.91251 8.3108L6.56001 3.0608C5.54927 3.28354 4.64509 3.84522 3.99754 4.65262C3.34999 5.46001 2.998 6.46456 3.00001 7.49955C3.00497 11.6089 4.6396 15.5485 7.54533 18.4542C10.4511 21.36 14.3907 22.9946 18.5 22.9996C19.5356 23.0024 20.5411 22.6508 21.3492 22.0032C22.1574 21.3556 22.7196 20.4509 22.9425 19.4396ZM14.7038 8.6833C15.3172 8.87665 15.8749 9.21507 16.3297 9.66985C16.7845 10.1246 17.1229 10.6824 17.3163 11.2958C17.412 11.6001 17.6022 11.866 17.8594 12.0549C18.1166 12.2437 18.4272 12.3456 18.7463 12.3458C18.8993 12.3456 19.0514 12.3224 19.1975 12.2771C19.5755 12.1575 19.8907 11.8931 20.0744 11.5418C20.258 11.1904 20.2951 10.7807 20.1775 10.4021C19.8392 9.32802 19.2468 8.35145 18.4506 7.55522C17.6544 6.75898 16.6778 6.16659 15.6038 5.8283C15.4147 5.76488 15.215 5.73977 15.0161 5.75445C14.8173 5.76913 14.6234 5.82331 14.4457 5.91381C14.268 6.00431 14.1102 6.12932 13.9814 6.28153C13.8527 6.43374 13.7555 6.6101 13.6957 6.8003C13.6359 6.99049 13.6146 7.1907 13.633 7.38923C13.6515 7.58775 13.7093 7.78061 13.8032 7.95651C13.897 8.13242 14.025 8.28785 14.1797 8.41371C14.3343 8.53958 14.5125 8.63335 14.7038 8.68955V8.6833Z" fill="#1F2937"/>
</svg>
