<svg width="16" height="18" viewBox="0 0 16 18" fill="none" xmlns="http://www.w3.org/2000/svg">
<path d="M14.6875 3.125H11.875V2.1875C11.875 1.60734 11.6445 1.05094 11.2343 0.640704C10.8241 0.230468 10.2677 0 9.6875 0H5.9375C5.35734 0 4.80094 0.230468 4.3907 0.640704C3.98047 1.05094 3.75 1.60734 3.75 2.1875V3.125H0.9375C0.68886 3.125 0.450403 3.22377 0.274587 3.39959C0.0987721 3.5754 0 3.81386 0 4.0625C0 4.31114 0.0987721 4.5496 0.274587 4.72541C0.450403 4.90123 0.68886 5 0.9375 5H1.25V15.625C1.25 16.0394 1.41462 16.4368 1.70765 16.7299C2.00067 17.0229 2.3981 17.1875 2.8125 17.1875H12.8125C13.2269 17.1875 13.6243 17.0229 13.9174 16.7299C14.2104 16.4368 14.375 16.0394 14.375 15.625V5H14.6875C14.9361 5 15.1746 4.90123 15.3504 4.72541C15.5262 4.5496 15.625 4.31114 15.625 4.0625C15.625 3.81386 15.5262 3.5754 15.3504 3.39959C15.1746 3.22377 14.9361 3.125 14.6875 3.125ZM5.625 2.1875C5.625 2.10462 5.65792 2.02513 5.71653 1.96653C5.77513 1.90792 5.85462 1.875 5.9375 1.875H9.6875C9.77038 1.875 9.84987 1.90792 9.90847 1.96653C9.96708 2.02513 10 2.10462 10 2.1875V3.125H5.625V2.1875ZM12.5 15.3125H3.125V5H12.5V15.3125ZM6.875 7.5V12.5C6.875 12.7486 6.77623 12.9871 6.60041 13.1629C6.4246 13.3387 6.18614 13.4375 5.9375 13.4375C5.68886 13.4375 5.4504 13.3387 5.27459 13.1629C5.09877 12.9871 5 12.7486 5 12.5V7.5C5 7.25136 5.09877 7.0129 5.27459 6.83709C5.4504 6.66127 5.68886 6.5625 5.9375 6.5625C6.18614 6.5625 6.4246 6.66127 6.60041 6.83709C6.77623 7.0129 6.875 7.25136 6.875 7.5ZM10.625 7.5V12.5C10.625 12.7486 10.5262 12.9871 10.3504 13.1629C10.1746 13.3387 9.93614 13.4375 9.6875 13.4375C9.43886 13.4375 9.2004 13.3387 9.02459 13.1629C8.84877 12.9871 8.75 12.7486 8.75 12.5V7.5C8.75 7.25136 8.84877 7.0129 9.02459 6.83709C9.2004 6.66127 9.43886 6.5625 9.6875 6.5625C9.93614 6.5625 10.1746 6.66127 10.3504 6.83709C10.5262 7.0129 10.625 7.25136 10.625 7.5Z" fill="#EF4444"/>
</svg>
