<svg width="17" height="17" viewBox="0 0 17 17" fill="none" xmlns="http://www.w3.org/2000/svg">
<path d="M16.6667 11.825C16.6667 14.8583 14.8583 16.6667 11.825 16.6667H10.8333C10.375 16.6667 10 16.2917 10 15.8333V11.025C10 10.8 10.1833 10.6083 10.4083 10.6083L11.875 10.5833C11.9917 10.575 12.0917 10.4917 12.1167 10.375L12.4083 8.78334C12.4333 8.63334 12.3167 8.49167 12.1583 8.49167L10.3833 8.51667C10.15 8.51667 9.96668 8.33334 9.95834 8.10834L9.925 6.06667C9.925 5.93333 10.0333 5.81668 10.175 5.81668L12.175 5.78334C12.3167 5.78334 12.425 5.67501 12.425 5.53335L12.3917 3.53333C12.3917 3.39166 12.2833 3.28334 12.1417 3.28334L9.89166 3.31668C8.50833 3.34168 7.40834 4.475 7.43334 5.85833L7.475 8.15C7.48333 8.38333 7.30001 8.56667 7.06668 8.57501L6.06667 8.59166C5.925 8.59166 5.81668 8.69999 5.81668 8.84165L5.84167 10.425C5.84167 10.5667 5.95 10.675 6.09166 10.675L7.09167 10.6583C7.32501 10.6583 7.50832 10.8417 7.51666 11.0667L7.59165 15.8167C7.59999 16.2833 7.22499 16.6667 6.75832 16.6667H4.84166C1.80833 16.6667 0 14.8583 0 11.8167V4.84166C0 1.80833 1.80833 0 4.84166 0H11.825C14.8583 0 16.6667 1.80833 16.6667 4.84166V11.825Z" fill="#101727"/>
</svg>
