<svg width="17" height="17" viewBox="0 0 17 17" fill="none" xmlns="http://www.w3.org/2000/svg">
<path d="M11.825 0H4.84167C1.80833 0 0 1.80833 0 4.84167V11.8167C0 14.8583 1.80833 16.6667 4.84167 16.6667H11.8167C14.85 16.6667 16.6583 14.8583 16.6583 11.825V4.84167C16.6667 1.80833 14.8583 0 11.825 0ZM8.33333 11.5667C6.55 11.5667 5.1 10.1167 5.1 8.33333C5.1 6.55 6.55 5.1 8.33333 5.1C10.1167 5.1 11.5667 6.55 11.5667 8.33333C11.5667 10.1167 10.1167 11.5667 8.33333 11.5667ZM13.2667 4.06667C13.225 4.16667 13.1667 4.25833 13.0917 4.34167C13.0083 4.41667 12.9167 4.475 12.8167 4.51667C12.7167 4.55833 12.6083 4.58333 12.5 4.58333C12.275 4.58333 12.0667 4.5 11.9083 4.34167C11.8333 4.25833 11.775 4.16667 11.7333 4.06667C11.6917 3.96667 11.6667 3.85833 11.6667 3.75C11.6667 3.64167 11.6917 3.53333 11.7333 3.43333C11.775 3.325 11.8333 3.24167 11.9083 3.15833C12.1 2.96667 12.3917 2.875 12.6583 2.93333C12.7167 2.94167 12.7667 2.95833 12.8167 2.98333C12.8667 3 12.9167 3.025 12.9667 3.05833C13.0083 3.08333 13.05 3.125 13.0917 3.15833C13.1667 3.24167 13.225 3.325 13.2667 3.43333C13.3083 3.53333 13.3333 3.64167 13.3333 3.75C13.3333 3.85833 13.3083 3.96667 13.2667 4.06667Z" fill="#101727"/>
</svg>
