<svg width="16" height="17" viewBox="0 0 16 17" fill="none" xmlns="http://www.w3.org/2000/svg">
<path d="M9.99762 9.375C9.99762 9.62364 9.89885 9.8621 9.72303 10.0379C9.54721 10.2137 9.30876 10.3125 9.06012 10.3125H6.56012C6.39028 10.3128 6.22357 10.2669 6.07779 10.1797C5.932 10.0926 5.81263 9.96752 5.73241 9.81783C5.65218 9.66814 5.61413 9.49946 5.62232 9.32983C5.6305 9.16019 5.68461 8.99596 5.77887 8.85469L7.30856 6.5625H6.56012C6.31148 6.5625 6.07302 6.46373 5.89721 6.28791C5.72139 6.1121 5.62262 5.87364 5.62262 5.625C5.62262 5.37636 5.72139 5.1379 5.89721 4.96209C6.07302 4.78627 6.31148 4.6875 6.56012 4.6875H9.06012C9.22995 4.68725 9.39666 4.73314 9.54245 4.82026C9.68823 4.90739 9.80761 5.03247 9.88783 5.18217C9.96805 5.33186 10.0061 5.50054 9.99792 5.67017C9.98974 5.83981 9.93563 6.00404 9.84137 6.14531L8.31168 8.4375H9.06012C9.30876 8.4375 9.54721 8.53627 9.72303 8.71209C9.89885 8.8879 9.99762 9.12636 9.99762 9.375ZM15.414 12.9688C15.2782 13.2076 15.0812 13.406 14.8432 13.5433C14.6052 13.6806 14.3349 13.752 14.0601 13.75H1.56012C1.28562 13.7517 1.01562 13.6802 0.777925 13.5429C0.54023 13.4056 0.343426 13.2074 0.207774 12.9688C0.0709713 12.7301 -0.000680737 12.4597 4.8744e-06 12.1846C0.000690486 11.9096 0.0736896 11.6395 0.211681 11.4016C0.887462 10.2344 1.24762 8.56094 1.24762 6.5625C1.24762 4.82202 1.93902 3.15282 3.16973 1.92211C4.40044 0.691404 6.06963 0 7.81012 0C9.5506 0 11.2198 0.691404 12.4505 1.92211C13.6812 3.15282 14.3726 4.82202 14.3726 6.5625C14.3726 8.56016 14.7312 10.2344 15.4093 11.4008C15.5477 11.6387 15.6211 11.9088 15.622 12.184C15.623 12.4593 15.5515 12.7299 15.4148 12.9688H15.414ZM13.539 11.875C12.8484 10.4688 12.4976 8.68203 12.4976 6.5625C12.4976 5.3193 12.0038 4.12701 11.1247 3.24794C10.2456 2.36886 9.05332 1.875 7.81012 1.875C6.56692 1.875 5.37463 2.36886 4.49555 3.24794C3.61648 4.12701 3.12262 5.3193 3.12262 6.5625C3.12262 8.68281 2.77262 10.4688 2.08121 11.875H13.539ZM10.3101 15H5.31012C5.06148 15 4.82302 15.0988 4.64721 15.2746C4.47139 15.4504 4.37262 15.6889 4.37262 15.9375C4.37262 16.1861 4.47139 16.4246 4.64721 16.6004C4.82302 16.7762 5.06148 16.875 5.31012 16.875H10.3101C10.5588 16.875 10.7972 16.7762 10.973 16.6004C11.1488 16.4246 11.2476 16.1861 11.2476 15.9375C11.2476 15.6889 11.1488 15.4504 10.973 15.2746C10.7972 15.0988 10.5588 15 10.3101 15Z" fill="#1F2937"/>
</svg>
