<svg width="17" height="15" viewBox="0 0 17 15" fill="none" xmlns="http://www.w3.org/2000/svg">
<path d="M16.875 13.4375C16.875 13.6861 16.7762 13.9246 16.6004 14.1004C16.4246 14.2762 16.1861 14.375 15.9375 14.375H0.9375C0.68886 14.375 0.450403 14.2762 0.274587 14.1004C0.0987721 13.9246 0 13.6861 0 13.4375V0.9375C0 0.68886 0.0987721 0.450403 0.274587 0.274587C0.450403 0.0987719 0.68886 0 0.9375 0C1.18614 0 1.4246 0.0987719 1.60041 0.274587C1.77623 0.450403 1.875 0.68886 1.875 0.9375V7.62109L5.32031 4.60938C5.48206 4.46786 5.68751 4.38622 5.90227 4.37811C6.11703 4.37 6.32805 4.43593 6.5 4.56484L10.8922 7.85859L15.3203 3.98438C15.411 3.89383 15.5193 3.82285 15.6386 3.77582C15.7578 3.72878 15.8854 3.7067 16.0135 3.71092C16.1416 3.71515 16.2675 3.74559 16.3833 3.80038C16.4992 3.85517 16.6026 3.93313 16.6872 4.02946C16.7717 4.12578 16.8356 4.23842 16.8749 4.36041C16.9142 4.48241 16.9281 4.61116 16.9157 4.73873C16.9033 4.8663 16.8648 4.98996 16.8027 5.10209C16.7407 5.21421 16.6562 5.31241 16.5547 5.39062L11.5547 9.76562C11.3929 9.90714 11.1875 9.98878 10.9727 9.99689C10.758 10.005 10.547 9.93907 10.375 9.81016L5.98281 6.51875L1.875 10.1133V12.5H15.9375C16.1861 12.5 16.4246 12.5988 16.6004 12.7746C16.7762 12.9504 16.875 13.1889 16.875 13.4375Z" fill="#64748B"/>
</svg>
