<svg width="27" height="25" viewBox="0 0 27 25" fill="none" xmlns="http://www.w3.org/2000/svg">
<path d="M8.50002 10.5C8.50002 10.1044 8.61732 9.71776 8.83708 9.38886C9.05685 9.05996 9.3692 8.80362 9.73466 8.65224C10.1001 8.50087 10.5022 8.46126 10.8902 8.53843C11.2782 8.6156 11.6345 8.80608 11.9142 9.08579C12.1939 9.36549 12.3844 9.72186 12.4616 10.1098C12.5388 10.4978 12.4992 10.8999 12.3478 11.2654C12.1964 11.6308 11.9401 11.9432 11.6112 12.1629C11.2823 12.3827 10.8956 12.5 10.5 12.5C9.96959 12.5 9.46088 12.2893 9.08581 11.9142C8.71074 11.5391 8.50002 11.0304 8.50002 10.5ZM16.5 12.5C16.8956 12.5 17.2823 12.3827 17.6112 12.1629C17.9401 11.9432 18.1964 11.6308 18.3478 11.2654C18.4992 10.8999 18.5388 10.4978 18.4616 10.1098C18.3844 9.72186 18.1939 9.36549 17.9142 9.08579C17.6345 8.80608 17.2782 8.6156 16.8902 8.53843C16.5022 8.46126 16.1001 8.50087 15.7347 8.65224C15.3692 8.80362 15.0568 9.05996 14.8371 9.38886C14.6173 9.71776 14.5 10.1044 14.5 10.5C14.5 11.0304 14.7107 11.5391 15.0858 11.9142C15.4609 12.2893 15.9696 12.5 16.5 12.5ZM27 2.5V18.5C27 19.163 26.7366 19.7989 26.2678 20.2678C25.7989 20.7366 25.1631 21 24.5 21H8.05877L4.12502 24.3962L4.11002 24.41C3.66183 24.7898 3.09373 24.9988 2.50627 25C2.13944 24.9991 1.77724 24.918 1.44502 24.7625C1.01223 24.5641 0.645783 24.2452 0.389516 23.8439C0.13325 23.4427 -0.00197503 22.9761 2.17994e-05 22.5V2.5C2.17994e-05 1.83696 0.263414 1.20107 0.732255 0.732233C1.2011 0.263392 1.83698 0 2.50002 0H24.5C25.1631 0 25.7989 0.263392 26.2678 0.732233C26.7366 1.20107 27 1.83696 27 2.5ZM24 3H3.00002V21.4037L6.52002 18.3638C6.7921 18.1282 7.14017 17.999 7.50002 18H24V3Z" fill="#1F2937"/>
</svg>
