<svg width="31" height="19" viewBox="0 0 31 19" fill="none" xmlns="http://www.w3.org/2000/svg">
<path d="M29.6812 2.16375C29.4345 2.03823 29.1577 1.98347 28.8817 2.00553C28.6057 2.0276 28.3412 2.12562 28.1175 2.28875L25 4.55375V2.5C25 1.83696 24.7366 1.20107 24.2678 0.732233C23.7989 0.263392 23.163 0 22.5 0H2.5C1.83696 0 1.20107 0.263392 0.732233 0.732233C0.263392 1.20107 0 1.83696 0 2.5V16.5C0 17.163 0.263392 17.7989 0.732233 18.2678C1.20107 18.7366 1.83696 19 2.5 19H22.5C23.163 19 23.7989 18.7366 24.2678 18.2678C24.7366 17.7989 25 17.163 25 16.5V14.4463L28.1175 16.7138C28.3413 16.8766 28.6058 16.9743 28.8818 16.9962C29.1577 17.018 29.4343 16.963 29.6809 16.8374C29.9275 16.7117 30.1346 16.5203 30.2792 16.2843C30.4237 16.0482 30.5002 15.7768 30.5 15.5V3.5C30.5 3.22344 30.4235 2.95227 30.279 2.71645C30.1345 2.48063 29.9276 2.28935 29.6812 2.16375ZM22 16H3V3H22V16ZM27.5 12.5537L25 10.7362V8.26375L27.5 6.44625V12.5537Z" fill="#1F2937"/>
</svg>
